<svg xmlns="http://www.w3.org/2000/svg" viewBox="0 0 153 136"><defs><style>.cls-1{fill:#212d44;}.cls-2{fill:#4f6586;}</style></defs><g id="Layer_2" data-name="Layer 2"><g id="Layer_1-2" data-name="Layer 1"><path class="cls-1" d="M115,95.94V61h-9V43h9V24h21V43h17V61H136V92.6c0,4.83,2.06,7.18,6.72,7.18A21.15,21.15,0,0,0,153,97.16v16.67a30.82,30.82,0,0,1-16.52,4.27C123.67,118.1,115,113,115,95.94Z"/><path class="cls-2" d="M114.7,111.67A4.94,4.94,0,0,1,110,115H26a5,5,0,0,1-5-5V26a5,5,0,0,1,5-5H135.52A26,26,0,0,0,110,0H26A26,26,0,0,0,0,26V110a26,26,0,0,0,26,26H110a26,26,0,0,0,23-13.86C124.59,121.36,118.12,118.37,114.7,111.67Z"/></g></g></svg>