<svg xmlns="http://www.w3.org/2000/svg" viewBox="0 0 426.08 111.95"><defs><style>.cls-1{fill:#FFFF;}.cls-2{fill:#FFFF;}</style></defs><g id="Layer_2" data-name="Layer 2"><g id="Layer_1-2" data-name="Layer 1"><path class="cls-1" d="M96,12.85,85.4,27h-15V0H96Z"/><polygon class="cls-1" points="63 0 0 0 0 27 33 27 33 110 63 110 63 51 63 27 63 0"/><path class="cls-1" d="M89.08,89.32V88.9c0-16.19,12.32-23.66,29.88-23.66a52.6,52.6,0,0,1,18.12,3.05V67.24c0-8.7-5.34-13.53-15.75-13.53-7.94,0-13.56,1.52-20.27,4l-5.21-16c8.08-3.59,16-5.94,28.49-5.94,11.37,0,19.59,3,24.8,8.28,5.48,5.52,7.94,13.67,7.94,23.6v42.92h-20v-8c-5.13,5.65-12.2,9.38-22.47,9.38C100.6,112,89.08,104,89.08,89.32Zm48-5V80.56a32.68,32.68,0,0,0-13.44-2.77c-9,0-14.56,3.6-14.56,10.25v.28c0,5.68,4.72,9,11.51,9C130.43,97.33,137.08,91.92,137.08,84.3Z"/><path class="cls-1" d="M168.76,100.61l9-13.87c8,5.82,16.5,8.87,23.44,8.87,6.1,0,8.87-2.22,8.87-5.54v-.4c0-4.5-7.1-6-15.15-8.46-10.24-3-21.85-7.79-21.85-22v-.39c0-15.11,12.21-23.57,27.19-23.57A51.41,51.41,0,0,1,228,43.87l-8,14.56c-7.35-4.3-14.7-6.94-20.11-6.94-5.13,0-7.77,2.22-7.77,5.13V57c0,4.09,7,6,14.89,8.74,10.24,3.41,22.11,8.32,22.11,21.7v.39c0,16.5-12.34,24-28.43,24A52.08,52.08,0,0,1,168.76,100.61Z"/><path class="cls-1" d="M243.08,9.57h21V63.49l24.58-26.92h25.12L285.62,65.7l29.13,44.87h-24l-19.34-30.3L264.08,88v22.55h-21Z"/><path class="cls-1" d="M348.08,73.72v-.27c0-24.7,16.23-38.23,33.84-38.23,11.24,0,18.17,5.11,23.16,11V9.57h21v101h-21V99.94c-5.13,6.9-12.2,12-23.16,12C364.59,112,348.08,98.43,348.08,73.72Zm58-.17v-.27c0-12.28-8.14-20.42-17.93-20.42s-18.07,8-18.07,20.42v.27c0,12.28,8.28,20.41,18.07,20.41S406.08,85.83,406.08,73.55Z"/><path class="cls-2" d="M342.83,30.18l-7.05,19.38h-9.95v-37h17Z"/></g></g></svg>