<svg xmlns="http://www.w3.org/2000/svg" viewBox="0 0 509.83 136"><defs><style>.cls-1{fill:#212d44;}.cls-2{fill:#4f6586;}</style></defs><g id="Layer_2" data-name="Layer 2"><g id="Layer_1-2" data-name="Layer 1"><path class="cls-1" d="M114.83,96.15V61.28h-9v-18h9v-19h21v19h17v18h-17v31.6c0,4.83,2,7.17,6.71,7.17a21.08,21.08,0,0,0,10.29-2.62v16.62a30.84,30.84,0,0,1-16.53,4.27C123.5,118.32,114.83,113.22,114.83,96.15Z"/><path class="cls-1" d="M163.83,96V95.6C163.83,79.42,176.14,72,193.7,72a52.72,52.72,0,0,1,18.13,3v-1c0-8.69-5.35-13.52-15.76-13.52-7.94,0-13.56,1.52-20.27,4l-5.21-16c8.09-3.58,16-5.93,28.5-5.93,11.37,0,19.59,3,24.79,8.28,5.48,5.52,8,13.66,8,23.6v42.92h-20v-8c-5.14,5.66-12.21,9.39-22.48,9.39C175.34,118.66,163.83,110.65,163.83,96Zm48-5V87.26a32.76,32.76,0,0,0-13.45-2.77c-9,0-14.55,3.61-14.55,10.26V95c0,5.68,4.71,9,11.5,9C205.17,104,211.83,98.63,211.83,91Z"/><path class="cls-1" d="M243.5,107.31l9-13.87c8.05,5.83,16.51,8.88,23.44,8.88,6.1,0,8.88-2.22,8.88-5.55v-.39c0-4.51-7.1-6-15.16-8.47-10.24-3-21.84-7.78-21.84-22v-.38C247.83,50.43,260,42,275,42a51.41,51.41,0,0,1,27.73,8.6l-8,14.56c-7.35-4.3-14.7-6.93-20.11-6.93-5.13,0-7.76,2.22-7.76,5.13v.39c0,4.1,7,6,14.88,8.74,10.24,3.41,22.12,8.33,22.12,21.71v.38c0,16.51-12.35,24-28.44,24A52,52,0,0,1,243.5,107.31Z"/><path class="cls-1" d="M319.83,16.28h21V70.2L365.4,43.28h25.13L362.36,72.41l29.13,44.87h-24L348.15,87l-7.32,7.74v22.56h-21Z"/><path class="cls-1" d="M418.83,36.89l-7.05,19.39h-9.95v-37h17Z"/><path class="cls-1" d="M431.83,80.43v-.28c0-24.7,16.22-38.22,33.84-38.22,11.23,0,18.16,5.1,23.16,11V16.28h21v101h-21V106.65c-5.13,6.9-12.21,12-23.16,12C448.33,118.66,431.83,105.13,431.83,80.43Zm58-.17V80c0-12.28-8.14-20.41-17.94-20.41s-18.06,8-18.06,20.41v.28c0,12.27,8.27,20.41,18.06,20.41S489.83,92.53,489.83,80.26Z"/><path class="cls-2" d="M114.7,111.67A4.94,4.94,0,0,1,110,115H26a5,5,0,0,1-5-5V26a5,5,0,0,1,5-5H135.52A26,26,0,0,0,110,0H26A26,26,0,0,0,0,26V110a26,26,0,0,0,26,26H110a26,26,0,0,0,23-13.86C124.59,121.36,118.12,118.37,114.7,111.67Z"/></g></g></svg>